<svg width="84" height="66" viewBox="0 0 84 66" fill="none" xmlns="http://www.w3.org/2000/svg">
<path d="M83.4569 22.4723C83.4569 25.359 83.4569 25.4097 80.7253 25.6168C76.512 25.9334 72.2887 26.1445 68.1274 26.9951C66.6538 27.2717 65.1991 27.6433 63.7721 28.1075C60.2607 29.3093 58.049 31.9482 56.3873 35.1455C54.5876 38.6187 53.6077 42.3742 52.8619 46.2007C52.6179 47.4512 52.4339 47.5872 51.2621 47.2542C48.0627 46.3387 44.8132 45.5795 41.5537 44.8853C40.1539 44.5869 40.046 44.4509 40.1539 42.9649C40.441 38.7727 41.4416 34.6628 43.1115 30.8175C46.3109 23.3574 51.0322 16.9914 56.8712 11.4658C58.299 10.1159 60.0107 9.17194 61.8244 8.46348C67.6435 6.19194 73.3205 3.6159 78.7056 0.400425C80.2394 -0.517123 81.5932 0.197427 81.8151 1.97974C82.523 7.67991 83.0629 13.3943 83.2409 19.1391C83.2769 20.2495 83.3829 21.3599 83.4569 22.4723ZM62.1424 19.2244C62.5423 19.3523 62.8142 19.1696 63.0882 19.0863C65.7921 18.2479 68.5374 17.5541 71.3129 17.0076C74.2664 16.4372 74.2504 16.4514 73.9564 13.443C73.8944 12.8097 73.7205 12.6046 73.0966 12.7914C70.9269 13.441 68.7293 14.0094 66.6456 14.9066C64.6439 15.7734 63.3462 17.4136 62.1424 19.2183V19.2244Z" fill="black"/>
<path d="M30.9014 30.0847C31.3113 28.9459 31.7012 27.7989 32.1332 26.6743C33.4536 23.3088 35.1676 20.1164 37.2383 17.1659C38.232 15.7004 39.7301 14.6656 41.4376 14.2651C44.6118 13.491 47.7859 12.7264 50.9601 11.9712C51.266 11.8961 51.674 11.6566 51.8719 12.0098C52.0699 12.363 51.65 12.5985 51.44 12.834C47.4987 17.237 44.1012 22.0237 41.5136 27.3767C38.8641 32.8576 37.3283 38.6451 37.2703 44.7533C37.2083 51.0888 38.8141 57.0549 41.6996 62.6719C42.8314 64.8764 42.7614 64.9718 40.3098 64.9739C38.9781 64.9739 37.6403 64.9028 36.3105 64.9921C34.9807 65.0814 34.0689 64.5333 33.289 63.4453C29.5732 58.3117 26.7067 52.5975 24.8024 46.5275C23.3389 41.7822 22.4919 36.8633 22.2828 31.8954C22.108 27.3697 22.4584 22.8388 23.3266 18.3961C23.5906 16.9934 23.7525 16.8899 25.1503 16.7518C27.07 16.5488 28.9857 16.3235 30.9034 16.0941C32.1832 15.9419 32.4551 16.2322 32.0852 17.4522C30.8854 21.4451 30.8134 25.5721 30.6554 29.6949C30.6649 29.8221 30.687 29.9479 30.7214 30.0705L30.9014 30.0847Z" fill="black"/>
<path d="M77.8749 36.1281H73.3776C72.7777 36.1281 72.2438 36.2783 71.8999 36.8101C71.6199 37.2364 71.364 37.752 71.5679 38.2311C71.7519 38.6655 72.2838 38.4524 72.6637 38.4706C75.8632 38.6249 79.0307 39.0005 82.2082 39.3314C82.9301 39.4085 83.274 39.7942 83.23 40.5493C83.128 42.3377 83.084 44.1302 82.9301 45.9125C82.8181 47.1955 82.3522 47.4695 81.1064 47.1305C78.3068 46.3632 75.5193 45.5715 72.7217 44.8042C71.8999 44.5788 71.064 44.455 70.4021 45.2102C69.7822 45.9166 69.9342 46.5215 70.802 46.7854C74.3835 47.8694 77.8429 49.2863 81.3083 50.6911C82.2122 51.0565 82.5181 51.5965 82.3742 52.5587C82.1442 54.0933 82.0142 55.6442 81.8143 57.185C81.5883 58.9226 80.2705 59.6534 78.7787 58.7785C71.6939 54.6502 64.1885 51.315 56.3944 48.8316C55.6965 48.6063 55.3946 48.1922 55.5305 47.4756C56.2844 43.2675 57.2743 39.1527 59.4679 35.4155C60.9957 32.8212 63.1213 31.1018 66.0668 30.3974C69.8296 29.5122 73.6592 28.9507 77.515 28.7187C79.1147 28.6151 80.7144 28.5522 82.3042 28.5157C83.23 28.4913 83.58 28.9054 83.556 29.7803C83.51 31.5708 83.458 33.3632 83.428 35.1537C83.414 35.8804 83.076 36.1808 82.3722 36.1687C80.8724 36.1504 79.3727 36.1687 77.8729 36.1687L77.8749 36.1281Z" fill="black"/>
<path d="M18.2641 41.6089C16.7364 41.6089 15.2066 41.5927 13.6769 41.6089C12.857 41.6211 12.477 41.2171 12.3371 40.4295C11.9799 38.5723 11.7189 36.6975 11.5552 34.8126C11.5052 34.1 11.2313 33.9031 10.5694 33.897C8.71166 33.8767 8.66967 33.8564 8.84164 35.7402C8.97362 37.1836 9.22158 38.6167 9.42555 40.0539C9.59952 41.2719 9.42555 41.4526 8.18575 41.4567C6.72199 41.4567 5.25823 41.5561 3.78647 41.5683C2.24672 41.5805 1.58683 41.0101 1.31487 39.5018C0.140391 32.9034 0.143777 26.1444 1.32487 19.5472C1.58883 18.1201 2.22072 17.5801 3.64449 17.574C5.14425 17.574 6.644 17.574 8.14176 17.6004C9.41955 17.6166 9.62751 17.8582 9.41155 19.1087C9.1176 20.8057 8.91363 22.515 8.72766 24.2283C8.64767 24.9469 8.90163 25.1072 9.52753 25.1316C11.3612 25.2067 11.3612 25.225 11.6312 23.4244C11.8651 21.8552 12.1051 20.2861 12.3331 18.7169C12.4471 17.9272 12.839 17.5639 13.6669 17.5395C15.5625 17.4806 17.4542 17.3365 19.3479 17.231C20.3618 17.1701 20.6197 17.4888 20.3938 18.7149C19.6535 22.8059 19.3345 26.964 19.4419 31.1221C19.5124 34.0946 19.8052 37.0574 20.3178 39.9849C20.6397 41.8302 20.6317 41.8627 18.764 41.8322C18.598 41.8322 18.4321 41.8322 18.2661 41.8322L18.2641 41.6089Z" fill="black"/>
</svg>
