<svg width="57" height="28" viewBox="0 0 57 28" fill="none" xmlns="http://www.w3.org/2000/svg">
<g clip-path="url(#clip0)">
<path d="M0 0.113281H3.01339C5.29547 0.113281 6.3245 0.490718 6.3245 2.03385C6.3245 3.6307 5.16828 3.48553 4.33147 3.56828V4.08072C5.51659 4.13589 6.90116 4.09234 6.90116 5.87209C6.90116 7.73024 5.09602 7.95235 2.99893 7.95235H0V0.113281ZM3.31256 2.93825C3.81118 2.93825 4.20863 3.01664 4.20863 2.46065C4.20863 1.9482 3.81118 1.98159 3.31256 1.98159H2.11588V2.93825H3.31256ZM3.301 6.08694C4.24187 6.08694 4.78529 6.17695 4.78529 5.45401C4.78529 4.68607 4.24187 4.80801 3.301 4.80801H2.11588V6.08694H3.301Z" fill="black"/>
<path d="M11.3876 1.98159V6.08694H13.1711V7.95671H7.48828V6.08694H9.27175V1.98159H7.48828V0.113281H13.1711V1.98159H11.3876Z" fill="black"/>
<path d="M17.4662 0C19.4275 0 21.0997 1.20199 21.3555 2.91497H19.2396C19.0401 2.13687 18.517 1.86976 17.4662 1.86976C16.2811 1.86976 15.5397 2.52592 15.5397 4.02841C15.5397 5.5309 16.138 6.19722 17.4186 6.19722C18.4042 6.19722 19.5865 5.80817 19.5865 5.08523H17.7076V3.50435H20.6661C21.3309 3.50435 21.7197 3.89486 21.7197 4.5844V7.9552H19.5937V7.4326L19.9926 6.0085H19.4723C19.5156 6.33078 19.494 8.06698 17.0457 8.06698C14.7752 8.06698 13.4238 6.47014 13.4238 4.02841C13.4238 1.58669 15.2073 0 17.4662 0Z" fill="black"/>
<path d="M6.62367 12.9027C6.62367 15.4054 5.01798 15.7291 3.04663 15.7291H2.11588V17.9212H0V10.0821H3.04663C5.01798 10.0763 6.62367 10.3986 6.62367 12.9027ZM4.5078 12.9027C4.5078 12.0012 4.12046 11.9461 3.18971 11.9461H2.11588V13.8594H3.18971C4.12046 13.8594 4.5078 13.8042 4.5078 12.9027Z" fill="black"/>
<path d="M10.8544 11.944V16.0493H12.6379V17.9191H6.95508V16.0493H8.73854V11.944H6.95508V10.0742H12.6379V11.944H10.8544Z" fill="black"/>
<path d="M17.0535 9.96875C19.3024 9.96875 20.7982 11.1707 21.0309 13.1073H18.9078C18.73 12.261 17.9655 11.8385 17.068 11.8385C15.8828 11.8385 15.0085 12.4947 15.0085 13.9972C15.0085 15.4997 15.8828 16.166 17.068 16.166C17.9655 16.166 18.73 15.7305 18.9078 14.887H21.0237C20.791 16.8337 19.2893 18.0357 17.0463 18.0357C14.4882 18.0357 12.8926 16.2937 12.8926 13.9972C12.8926 11.7006 14.4882 9.96875 17.0535 9.96875Z" fill="black"/>
<path d="M28.2354 11.944H25.7423V17.9191H23.6264V11.944H21.1348V10.0742H28.2354V11.944Z" fill="black"/>
<path d="M28.8886 10.0742H31.003V13.9575C31.003 15.2814 30.9481 16.1597 32.5769 16.1597C34.2057 16.1597 34.1667 15.2887 34.1667 13.9575V10.0742H36.2826V15.0099C36.2826 16.9682 34.9631 18.0367 32.5711 18.0367C30.1792 18.0367 28.8828 16.9682 28.8828 15.0099L28.8886 10.0742Z" fill="black"/>
<path d="M37.1426 10.0742H40.3337C42.1938 10.0742 43.9888 10.5097 43.9888 12.2663C43.9888 13.6018 42.7705 13.8907 41.7949 13.9909V14.5018H43.0133C43.6896 14.5018 44.0885 14.9025 44.0885 15.5935V17.9162H41.9683V15.3148H39.2541V17.9191H37.1426V10.0742ZM40.3337 13.445C41.2746 13.445 41.8729 13.5016 41.8729 12.7003C41.8729 11.899 41.2746 11.944 40.3337 11.944H39.2585V13.445H40.3337Z" fill="black"/>
<path d="M45.0488 10.0742H50.908V11.944H47.1633V13.0618H50.3544V14.9315H47.1633V16.0551H50.908V17.9249H45.0488V10.0742Z" fill="black"/>
<path d="M0 20.043H5.74928V21.92H2.11588V23.8333L5.60476 23.6112V25.4984L2.11588 25.7205V27.898H0V20.043Z" fill="black"/>
<path d="M6.49023 20.043H12.3508V21.92H8.60611V23.032H11.7958V24.9017H8.60611V26.0253H12.3508V27.8951H6.49023V20.043Z" fill="black"/>
<path d="M16.794 27.9996C13.9468 27.9996 12.7949 26.8644 12.7949 24.8277H14.9108C14.9108 25.7742 15.3444 26.1342 16.8706 26.1342C17.9343 26.1342 18.1569 25.9788 18.1569 25.7219C18.1569 25.3445 17.3692 25.1107 16.278 24.7202C14.5784 24.1265 13.1533 23.6707 13.1533 22.0651C13.1533 20.6744 14.2836 19.9297 16.3431 19.9297C18.7697 19.9297 19.9562 21.0751 19.9562 22.7445H17.8346C17.8346 21.9432 17.203 21.798 16.3387 21.798C15.6522 21.798 15.2649 21.8982 15.2649 22.1551C15.2649 22.3772 15.2533 22.4222 16.4948 22.8548C17.9011 23.3455 20.2713 24.0016 20.2713 25.6479C20.2713 27.0749 19.2307 27.9996 16.794 27.9996Z" fill="black"/>
<path d="M27.1494 21.92H24.6563V27.8951H22.5463V21.92H20.0488V20.043H27.1494V21.92Z" fill="black"/>
<path d="M31.8114 21.92V26.0253H33.5949V27.8951H27.9121V26.0181H29.6956V21.92H27.9121V20.043H33.5949V21.92H31.8114Z" fill="black"/>
<path d="M36.4089 20.043L38.3253 27.3652H38.847L40.7736 20.043H42.9256L40.7765 27.882H36.3988L34.2598 20.043H36.4089Z" fill="black"/>
<path d="M47.728 25.5976H44.56L43.9616 27.8899H41.8125L43.9515 20.0508H48.3263L50.4755 27.8899H48.3263L47.728 25.5976ZM47.2294 23.7279L46.3998 20.569H45.878L45.0485 23.7279H47.2294Z" fill="black"/>
<path d="M51.1406 26.953V20.043H53.2551V26.1299L56.9998 26.0181V27.8879L52.2029 27.9996C51.5164 28.0171 51.1406 27.6425 51.1406 26.953Z" fill="black"/>
</g>
<defs>
<clipPath id="clip0">
<rect width="57" height="28" fill="white"/>
</clipPath>
</defs>
</svg>
