<svg width="132" height="29" viewBox="0 0 132 29" fill="none" xmlns="http://www.w3.org/2000/svg">
<path d="M131.103 28.9939H0V0H131.103V28.9939ZM7.53164 22.5949H12.0159V17.9601H14.2348C18.2584 17.9601 21.1871 15.9497 21.1871 12.1317V12.0854C21.1871 8.50207 18.551 6.399 14.4579 6.399H7.53164V22.5949ZM12.0159 14.4521V10.1735H14.1189C15.7353 10.1735 16.7087 10.9122 16.7087 12.2998V12.3461C16.7087 13.6178 15.7353 14.4521 14.1421 14.4521H12.0159ZM31.2274 22.9107C36.2098 22.9107 39.9757 19.142 39.9757 14.4839V14.4405C39.9757 9.80272 36.2678 6.08325 31.2853 6.08325C26.3028 6.08325 22.5341 9.84907 22.5341 14.4839V14.5332C22.5341 19.1912 26.2362 22.9107 31.2274 22.9107ZM31.2737 18.8552C28.823 18.8552 27.1371 16.8274 27.1371 14.4868V14.4434C27.1371 12.1173 28.7767 10.1388 31.2274 10.1388C33.678 10.1388 35.39 12.1665 35.39 14.4839V14.5332C35.39 16.8767 33.7476 18.8639 31.2853 18.8639L31.2737 18.8552ZM48.5472 22.8585C52.4753 22.8585 55.0882 20.8916 55.0882 17.5835V17.54C55.0882 14.51 52.7708 13.3078 49.0513 12.4967C46.8121 11.9927 46.2588 11.6654 46.2588 10.9296V10.8803C46.2588 10.301 46.7918 9.84038 47.8752 9.84038C49.3091 9.84038 50.9284 10.3937 52.4058 11.4336L54.6508 8.26743C52.8924 6.86249 50.743 6.12091 47.9882 6.12091C44.1065 6.1296 41.7137 8.29929 41.7137 11.2975V11.3409C41.7137 14.6722 44.373 15.6397 47.8173 16.4277C50.0159 16.9375 50.546 17.2967 50.546 17.9775V18.0238C50.546 18.7161 49.8971 19.1304 48.695 19.1304C46.7758 19.1072 44.9235 18.4215 43.4518 17.1895L40.9519 20.1732C42.9535 21.9634 45.6794 22.8672 48.5472 22.8672V22.8585ZM63.3904 22.8585C67.3213 22.8585 69.9313 20.8916 69.9313 17.5835V17.54C69.9313 14.51 67.6139 13.3078 63.8973 12.4967C61.6581 11.9927 61.1019 11.6654 61.1019 10.9296V10.8803C61.1019 10.301 61.632 9.84038 62.7212 9.84038C64.1522 9.84038 65.7715 10.3937 67.2518 11.4336L69.4939 8.26743C67.7355 6.86249 65.5832 6.12091 62.8313 6.12091C58.9467 6.12091 56.5684 8.2906 56.5684 11.3004V11.3438C56.5684 14.6751 59.2248 15.6426 62.672 16.4306C64.8677 16.9404 65.4007 17.2996 65.4007 17.9804V18.0267C65.4007 18.719 64.7519 19.1333 63.5497 19.1333C61.6286 19.1107 59.7744 18.425 58.3007 17.1924L55.8037 20.1761C57.7967 21.9634 60.5226 22.8672 63.3904 22.8672V22.8585ZM72.1995 22.5689H76.7098V6.40479H72.1995V22.5689ZM79.6616 22.5949H88.0102C91.8745 22.5949 94.1456 20.9003 94.1456 18.1281V18.0788C94.1456 15.8831 92.8999 14.7707 90.9359 14.1305C92.3669 13.5019 93.4329 12.3925 93.4329 10.5211V10.4748C93.446 9.99209 93.3602 9.51183 93.1808 9.0635C93.0015 8.61517 92.7324 8.20823 92.3901 7.86767C91.4429 6.92042 90.0089 6.41928 87.9754 6.41928H79.6616V22.5949ZM84.0358 12.8559V10.0113H86.9499C88.2912 10.0113 88.9777 10.5211 88.9777 11.3989V11.4423C88.9777 12.3925 88.2158 12.8559 86.8514 12.8559H84.0358ZM84.0358 18.9855V15.9989H87.4598C88.9603 15.9989 89.6555 16.5783 89.6555 17.4473V17.4966C89.6555 18.4409 88.8676 18.9768 87.5061 18.9768L84.0358 18.9855ZM96.2023 22.5862H108.522V18.6582H100.684V6.40479H96.1994L96.2023 22.5862ZM110.443 22.5862H123.577V18.777H114.887V16.222H122.653V12.6705H114.881V10.2199H123.458V6.40479H110.44L110.443 22.5862Z" fill="black"/>
</svg>
