<svg width="139" height="32" viewBox="0 0 139 32" fill="none" xmlns="http://www.w3.org/2000/svg">
<path fill-rule="evenodd" clip-rule="evenodd" d="M139 30.9985H135.215L128.759 23.0099L122.336 30.9985H118.576L126.876 20.6785L119.006 10.9437H122.79L128.761 18.3324L134.703 10.9437H138.463L130.648 20.6638L139 30.9985ZM81.8762 31.4992C75.9342 31.4992 74.1496 29.9951 74.1496 29.9951V0.917168H77.0473V11.4885C78.1198 10.9381 79.6641 10.4429 81.8762 10.4429C87.7441 10.4429 92.5006 14.8783 92.5006 20.972C92.5006 27.0638 87.7441 31.4992 81.8762 31.4992ZM81.8762 13.4512C79.8655 13.4512 78.2152 14.251 77.0473 15.0764V27.4894C77.0473 27.4894 78.6022 28.4928 81.8762 28.4928C86.1433 28.4928 89.6029 25.4019 89.6029 20.972C89.6029 16.5402 86.1433 13.4512 81.8762 13.4512ZM64.49 0.917168H67.3877V30.9985H64.49V0.917168ZM57.7298 0.917168V30.9985H54.8321V0.917168H57.7298ZM46.563 5.42964C45.229 5.42964 44.1477 4.30702 44.1477 2.9221C44.1477 1.53901 45.2273 0.41456 46.563 0.41456C47.8953 0.41456 48.9784 1.53717 48.9784 2.9221C48.9766 4.30519 47.8953 5.42964 46.563 5.42964ZM36.9635 30.9985L26.8215 20.4694L35.997 10.9437H40.0944L30.9189 20.4694L41.0609 30.9985H36.9635ZM23.9238 30.9985V0.917168H26.8215V20.4712V31.0003H23.9238V30.9985ZM19.3351 22.8155C19.3351 27.8416 15.478 31.4882 9.35218 31.4882C5.38903 31.4882 2.30403 29.4539 0 27.128L2.0496 24.7782C3.96668 26.6731 6.22124 28.5166 9.31155 28.5166C12.7446 28.5166 16.4445 26.519 16.4445 22.9292C16.4445 19.9502 14.1617 18.0077 9.36809 16.4742C3.90661 14.7389 1.13258 12.3873 1.13258 7.96836C1.13258 3.59163 4.69995 0 9.78154 0C13.5768 0 15.9551 1.68025 18.2662 3.82826L16.2537 6.1487C14.2253 4.28318 12.2941 3.01932 9.92289 3.01932C6.98278 3.01932 4.08683 4.98573 4.08683 7.81978C4.08683 10.3897 5.50742 12.0222 10.5219 13.6181C15.1158 15.0893 19.3351 17.3657 19.3351 22.8155ZM48.0702 30.9985H45.1725V10.9437H48.0702V30.9985ZM106.505 32C100.637 32 95.8807 27.062 95.8807 20.9701C95.8807 14.8783 100.637 9.94027 106.505 9.94027C112.373 9.94027 117.129 14.8783 117.129 20.9701C117.129 27.0638 112.375 32 106.505 32ZM106.505 12.9486C102.238 12.9486 98.7784 16.5402 98.7784 20.9701C98.7784 25.4001 102.238 28.9917 106.505 28.9917C110.772 28.9917 114.232 25.4001 114.232 20.9701C114.232 16.5402 110.772 12.9486 106.505 12.9486Z" fill="black"/>
</svg>
