<svg width="22" height="22" viewBox="0 0 22 22" fill="none" xmlns="http://www.w3.org/2000/svg">
<g clip-path="url(#clip0)">
<path d="M18.5625 10.0834C18.3177 10.0834 18.0776 10.11 17.8457 10.1585C17.5368 7.03362 14.8922 4.58337 11.6875 4.58337C11.308 4.58337 11 4.89137 11 5.27087V16.2709C11 16.6504 11.308 16.9584 11.6875 16.9584H18.5625C20.4591 16.9584 22 15.4175 22 13.5209C22 11.6261 20.4591 10.0834 18.5625 10.0834Z" fill="black"/>
<path d="M8.25 6.64618V16.2712C8.25 16.6507 8.558 16.9587 8.9375 16.9587C9.317 16.9587 9.625 16.6507 9.625 16.2712V6.64618C9.625 6.26668 9.317 5.95868 8.9375 5.95868C8.558 5.95868 8.25 6.26668 8.25 6.64618Z" fill="black"/>
<path d="M5.5 9.39575V16.2708C5.5 16.6503 5.808 16.9583 6.1875 16.9583C6.567 16.9583 6.875 16.6503 6.875 16.2708V9.39575C6.875 9.01625 6.567 8.70825 6.1875 8.70825C5.808 8.70825 5.5 9.01625 5.5 9.39575Z" fill="black"/>
<path d="M2.75 16.2708C2.75 16.6503 3.058 16.9583 3.4375 16.9583C3.817 16.9583 4.125 16.6503 4.125 16.2708V9.39575C4.125 9.01625 3.817 8.70825 3.4375 8.70825C3.058 8.70825 2.75 9.01625 2.75 9.39575V16.2708Z" fill="black"/>
<path d="M0.6875 16.9583C1.067 16.9583 1.375 16.6503 1.375 16.2708V12.1458C1.375 11.7663 1.067 11.4583 0.6875 11.4583C0.308 11.4583 0 11.7663 0 12.1458V16.2708C0 16.6503 0.308 16.9583 0.6875 16.9583Z" fill="black"/>
</g>
<defs>
<clipPath id="clip0">
<rect width="22" height="22" fill="white"/>
</clipPath>
</defs>
</svg>
