<svg width="19" height="22" viewBox="0 0 19 22" fill="none" xmlns="http://www.w3.org/2000/svg">
<path d="M14.2718 6.79778C14.2561 6.78467 14.243 6.77155 14.2274 6.75844V8.14842C15.4909 9.53839 16.2114 11.3611 16.2114 13.2992C16.2114 17.5216 12.8046 20.9467 8.60169 20.9467C4.39874 20.9467 0.992 17.5216 0.992 13.2992C0.992 9.07682 4.39874 5.6517 8.60169 5.6517C9.40834 5.6517 10.1967 5.77759 10.9486 6.02149C11.0504 6.05296 11.1496 6.08968 11.2488 6.12639V5.07211C10.416 4.80198 9.52581 4.65511 8.60169 4.65511C3.85053 4.65511 0 8.52607 0 13.2992C0 18.0723 3.85053 21.9433 8.60169 21.9433C13.3528 21.9433 17.2034 18.0723 17.2034 13.2992C17.2034 10.7081 16.0678 8.38183 14.2718 6.79778Z" fill="black"/>
<path d="M12.2434 0V10.4327C12.1912 10.3619 12.139 10.2937 12.0841 10.2308C11.2357 9.2604 9.99049 8.64671 8.6043 8.64671C6.04598 8.64671 3.97322 10.7317 3.97322 13.3018C3.97322 15.872 6.04598 17.9569 8.6043 17.9569C10.4029 17.9569 12.0267 16.8869 12.7289 15.4235C13.0683 14.7154 13.2354 14.0362 13.2354 13.1314V4.71019L18.198 6.64829V2.32887L12.2434 0Z" fill="black"/>
</svg>
