<svg width="20" height="22" viewBox="0 0 20 22" fill="none" xmlns="http://www.w3.org/2000/svg">
<g clip-path="url(#clip0)">
<path d="M12.0562 13.1932C11.4971 12.6796 10.7581 12.4074 9.99968 12.4358C9.61854 12.4179 9.23761 12.4756 8.87885 12.6056C8.52008 12.7355 8.19057 12.9353 7.90929 13.1932C7.69417 13.4175 7.56254 13.7088 7.5364 14.0185C7.46504 14.7327 7.46504 15.4523 7.5364 16.1665C7.6155 17.037 7.75109 18.2015 7.93188 19.3885C8.00845 19.9381 8.1217 20.482 8.27087 21.0165C8.4051 21.3374 8.63923 21.6064 8.93847 21.7836C9.23771 21.9608 9.5861 22.0367 9.93188 22C10.2777 22.0367 10.6261 21.9608 10.9253 21.7836C11.2245 21.6064 11.4587 21.3374 11.5929 21.0165C11.7311 20.48 11.8404 19.9366 11.9206 19.3885C12.1014 18.258 12.2483 17.037 12.3161 16.1665C12.3931 15.4526 12.3931 14.7324 12.3161 14.0185C12.3262 13.7218 12.2344 13.4306 12.0562 13.1932ZM7.672 9.19118C7.672 9.65179 7.80851 10.1021 8.06428 10.485C8.32005 10.868 8.68359 11.1665 9.10892 11.3428C9.53424 11.5191 10.0023 11.5652 10.4538 11.4753C10.9053 11.3854 11.3201 11.1636 11.6456 10.8379C11.9711 10.5122 12.1928 10.0973 12.2826 9.64552C12.3725 9.19376 12.3264 8.7255 12.1502 8.29996C11.974 7.87441 11.6757 7.51069 11.2929 7.25479C10.9101 6.99889 10.4601 6.8623 9.99968 6.8623C9.38234 6.8623 8.79029 7.10766 8.35376 7.54441C7.91723 7.98116 7.672 8.57352 7.672 9.19118ZM9.96578 1.79923e-05C7.60818 0.00865551 5.32943 0.850428 3.53188 2.37672C1.73432 3.90301 0.533552 6.01565 0.141578 8.34165C-0.250395 10.6677 0.191633 13.0574 1.38962 15.089C2.58761 17.1207 4.46451 18.6634 6.68895 19.445C6.711 19.4531 6.73477 19.4553 6.75793 19.4514C6.78109 19.4476 6.80284 19.4377 6.82107 19.4229C6.83929 19.4081 6.85336 19.3888 6.86189 19.3669C6.87042 19.345 6.87313 19.3213 6.86974 19.2981C6.86974 18.9589 6.76804 18.6084 6.72284 18.2693C6.71194 18.2115 6.68794 18.157 6.65268 18.11C6.61742 18.0629 6.57184 18.0246 6.51945 17.998C4.68102 17.1977 3.17424 15.7882 2.25267 14.0067C1.3311 12.2253 1.051 10.1805 1.45952 8.21669C1.86803 6.25283 2.94021 4.48971 4.49564 3.22402C6.05106 1.95834 7.99477 1.26735 9.99968 1.26735C12.0046 1.26735 13.9483 1.95834 15.5037 3.22402C17.0592 4.48971 18.1313 6.25283 18.5398 8.21669C18.9484 10.1805 18.6683 12.2253 17.7467 14.0067C16.8251 15.7882 15.3183 17.1977 13.4799 17.998C13.4258 18.0223 13.3788 18.0599 13.3432 18.1074C13.3076 18.1548 13.2847 18.2105 13.2765 18.2693C13.2765 18.6084 13.1861 18.9589 13.1296 19.2981C13.1262 19.3213 13.1289 19.345 13.1375 19.3669C13.146 19.3888 13.1601 19.4081 13.1783 19.4229C13.1965 19.4377 13.2183 19.4476 13.2414 19.4514C13.2646 19.4553 13.2884 19.4531 13.3104 19.445C15.5403 18.6615 17.4208 17.1131 18.6183 15.0744C19.8158 13.0358 20.2529 10.6386 19.852 8.30824C19.4512 5.97784 18.2383 3.86481 16.4286 2.34393C14.6189 0.823061 12.3292 -0.0073422 9.96578 1.79923e-05ZM9.78499 4.58995C10.8904 4.54269 11.9838 4.83553 12.9178 5.42902C13.8518 6.02252 14.5815 6.88815 15.0088 7.90932C15.436 8.93049 15.5401 10.0581 15.3072 11.1403C15.0742 12.2225 14.5154 13.2073 13.7059 13.962C13.6623 14.0017 13.6284 14.0509 13.6069 14.1058C13.5853 14.1607 13.5767 14.2198 13.5816 14.2785C13.6031 14.6551 13.6031 15.0325 13.5816 15.4091C13.5824 15.4325 13.5892 15.4553 13.6014 15.4754C13.6136 15.4954 13.6308 15.5119 13.6513 15.5233C13.6718 15.5346 13.6948 15.5405 13.7183 15.5403C13.7417 15.5401 13.7647 15.5339 13.785 15.5221C14.9697 14.7159 15.865 13.551 16.3393 12.1983C16.8137 10.8456 16.8422 9.3764 16.4206 8.00632C15.9991 6.63625 15.1497 5.43744 13.9971 4.58586C12.8445 3.73428 11.4494 3.27477 10.0166 3.27477C8.58384 3.27477 7.18877 3.73428 6.03619 4.58586C4.88361 5.43744 4.0342 6.63625 3.61265 8.00632C3.19109 9.3764 3.21958 10.8456 3.69394 12.1983C4.1683 13.551 5.06354 14.7159 6.24827 15.5221C6.26856 15.5339 6.29154 15.5401 6.31498 15.5403C6.33841 15.5405 6.3615 15.5346 6.38199 15.5233C6.40247 15.5119 6.41966 15.4954 6.43187 15.4754C6.44408 15.4553 6.4509 15.4325 6.45166 15.4091C6.43014 15.0325 6.43014 14.6551 6.45166 14.2785C6.4521 14.2193 6.44029 14.1606 6.41695 14.1061C6.39362 14.0516 6.35927 14.0025 6.31607 13.962C5.54025 13.2313 4.99673 12.2882 4.75335 11.2503C4.50996 10.2125 4.57749 9.12593 4.9475 8.12625C5.31752 7.12657 5.97363 6.25808 6.83394 5.62917C7.69424 5.00027 8.72064 4.63882 9.78499 4.58995Z" fill="black"/>
</g>
<defs>
<clipPath id="clip0">
<rect width="20" height="22" fill="white"/>
</clipPath>
</defs>
</svg>
